Coordinates
version=1
nRows=20
nColumns=38
inDegrees=no

Units are S.I. units (second, meters, Newtons, ...)
If the header above contains a line with 'inDegrees', this indicates whether rotational values are in degrees (yes) or radians (no).

endheader
time	pelvis_tilt	pelvis_list	pelvis_rotation	pelvis_tx	pelvis_ty	pelvis_tz	hip_flexion_r	hip_adduction_r	hip_rotation_r	knee_angle_r	ankle_angle_r	subtalar_angle_r	mtp_angle_r	hip_flexion_l	hip_adduction_l	hip_rotation_l	knee_angle_l	ankle_angle_l	subtalar_angle_l	mtp_angle_l	lumbar_extension	lumbar_bending	lumbar_rotation	arm_flex_r	arm_add_r	arm_rot_r	elbow_flex_r	pro_sup_r	wrist_flex_r	wrist_dev_r	arm_flex_l	arm_add_l	arm_rot_l	elbow_flex_l	pro_sup_l	wrist_flex_l	wrist_dev_l
4.64	-0.850764	1.50813	-0.9677	1.10694	-0.314767	0.975004	0.133058	-0.0634672	0.0133271	0.118584	0.122973	0	0	-0.127156	0.0289185	-0.0646684	0.0235925	0.0345772	0	0	-0.0734567	0.0413518	0.0301901	0.137792	-0.140575	-0.289821	0.154848	1.5708	0	0	-0.0225974	-0.174944	0.369111	0.537032	0.933379	0	0
4.65	-0.864618	1.50761	-0.949022	1.10695	-0.316211	0.975085	0.134275	-0.0668785	0.0112993	0.118217	0.117861	0	0	-0.127383	0.0273355	-0.0625731	0.0255495	0.0362164	0	0	-0.073331	0.040787	0.033336	0.138959	-0.142254	-0.293794	0.151389	1.5708	0	0	-0.0228708	-0.174914	0.369963	0.540148	0.932344	0	0
4.66	-0.887754	1.50652	-0.922548	1.10703	-0.317528	0.975259	0.136625	-0.0696613	0.00924233	0.120198	0.114001	0	0	-0.127874	0.0253245	-0.0614343	0.0269749	0.0373993	0	0	-0.0770464	0.0385618	0.0309891	0.144856	-0.142345	-0.292697	0.147954	1.5708	0	0	-0.0288211	-0.175112	0.355727	0.550203	0.935357	0	0
4.67	-0.897933	1.50583	-0.908593	1.10684	-0.318898	0.975327	0.138482	-0.0733471	0.00625258	0.122668	0.11127	0	0	-0.128834	0.0239109	-0.0598366	0.0278968	0.0385538	0	0	-0.0770238	0.0379562	0.0343573	0.144929	-0.14358	-0.294249	0.146495	1.5708	0	0	-0.0300405	-0.174936	0.35379	0.551596	0.937858	0	0
4.68	-0.893234	1.50565	-0.908498	1.10642	-0.320339	0.975294	0.140015	-0.0782005	0.00158306	0.126445	0.110281	0	0	-0.129981	0.0231771	-0.0574789	0.0288809	0.0398633	0	0	-0.0729262	0.038748	0.0426924	0.140317	-0.145957	-0.299137	0.144658	1.5708	0	0	-0.0267589	-0.174769	0.364552	0.545288	0.938797	0	0
4.69	-0.901682	1.5051	-0.895745	1.10614	-0.321712	0.975333	0.142517	-0.0824236	-0.00371813	0.131993	0.110299	0	0	-0.130595	0.0217132	-0.0552462	0.0303175	0.0410014	0	0	-0.0722981	0.037899	0.0460218	0.139452	-0.14721	-0.302273	0.143374	1.5708	0	0	-0.0275061	-0.175961	0.368933	0.54531	0.938099	0	0
4.7	-0.910557	1.50469	-0.883333	1.1057	-0.323034	0.975339	0.145554	-0.0867482	-0.00867208	0.138677	0.111614	0	0	-0.131084	0.0202753	-0.0531509	0.0319611	0.0425074	0	0	-0.0717171	0.0368519	0.0495858	0.138156	-0.14816	-0.305374	0.14346	1.5708	0	0	-0.0289028	-0.177277	0.370998	0.546245	0.93676	0	0
4.71	-0.910816	1.50404	-0.879956	1.10511	-0.324423	0.97537	0.147618	-0.0912949	-0.0127038	0.145278	0.11345	0	0	-0.132147	0.0190481	-0.0507521	0.0339994	0.0444233	0	0	-0.0717259	0.0352868	0.0532844	0.13628	-0.14865	-0.308965	0.14452	1.5708	0	0	-0.0307975	-0.178817	0.371388	0.547494	0.935612	0	0
4.72	-0.909554	1.50339	-0.877799	1.10446	-0.325779	0.97536	0.149417	-0.0959456	-0.0165449	0.152037	0.114597	0	0	-0.133039	0.0177245	-0.0488409	0.0363066	0.046593	0	0	-0.0716464	0.0336197	0.0560864	0.134524	-0.148986	-0.311648	0.14564	1.5708	0	0	-0.0330937	-0.180514	0.370755	0.548511	0.934458	0	0
4.73	-0.908244	1.50288	-0.87615	1.10377	-0.327101	0.975311	0.151794	-0.100781	-0.019909	0.15985	0.115495	0	0	-0.13392	0.0165536	-0.0476441	0.0382925	0.0486687	0	0	-0.0713428	0.0319613	0.0592548	0.132064	-0.14961	-0.313231	0.147913	1.5708	0	0	-0.0352945	-0.18208	0.369977	0.548907	0.932915	0	0
4.74	-0.907704	1.50282	-0.873136	1.10305	-0.328576	0.975219	0.153783	-0.106066	-0.0234954	0.167202	0.116337	0	0	-0.134747	0.0155134	-0.0456621	0.0398264	0.0506669	0	0	-0.0700253	0.0300626	0.0616319	0.128557	-0.150207	-0.314091	0.150898	1.5708	0	0	-0.0379854	-0.183763	0.368946	0.548892	0.930983	0	0
4.75	-0.901921	1.50296	-0.874835	1.10222	-0.330125	0.975113	0.154463	-0.111742	-0.0262256	0.173072	0.116862	0	0	-0.136031	0.0145595	-0.0429059	0.0409407	0.0524961	0	0	-0.068614	0.0274762	0.0626344	0.125034	-0.150293	-0.314306	0.153868	1.5708	0	0	-0.0414905	-0.186191	0.367634	0.549148	0.929358	0	0
4.76	-0.893485	1.50326	-0.879767	1.10126	-0.331606	0.974999	0.15482	-0.117439	-0.027469	0.178114	0.116633	0	0	-0.137522	0.0137765	-0.0403486	0.0417008	0.0542789	0	0	-0.0673261	0.0245802	0.0639465	0.121498	-0.150178	-0.314684	0.156853	1.5708	0	0	-0.0449774	-0.188834	0.366814	0.54852	0.928303	0	0
4.77	-0.882929	1.50356	-0.887848	1.10022	-0.332965	0.974887	0.155513	-0.123156	-0.0273888	0.183451	0.116255	0	0	-0.139124	0.0131691	-0.0384554	0.0423699	0.0560128	0	0	-0.0661258	0.0216037	0.0657052	0.118569	-0.150252	-0.314053	0.159177	1.5708	0	0	-0.0483399	-0.191291	0.365484	0.547162	0.927029	0	0
4.78	-0.870157	1.50399	-0.898477	1.09906	-0.334335	0.97476	0.156263	-0.129038	-0.0268855	0.189063	0.116383	0	0	-0.140879	0.0126917	-0.0366501	0.0428997	0.0576436	0	0	-0.0648356	0.0183476	0.0675223	0.115708	-0.150104	-0.313351	0.161246	1.5708	0	0	-0.0518525	-0.19388	0.363667	0.545524	0.92553	0	0
4.79	-0.858301	1.50457	-0.908515	1.09778	-0.335768	0.974613	0.15681	-0.134895	-0.0261083	0.194401	0.11695	0	0	-0.142776	0.0122225	-0.0350354	0.0429688	0.0591772	0	0	-0.0631256	0.015067	0.0693287	0.112363	-0.149846	-0.312973	0.163885	1.5708	0	0	-0.0555363	-0.196522	0.361551	0.543578	0.924414	0	0
4.8	-0.84784	1.50518	-0.917549	1.09641	-0.337279	0.974461	0.157143	-0.140585	-0.0254194	0.199418	0.117578	0	0	-0.144999	0.0116833	-0.0334511	0.0424518	0.0606033	0	0	-0.0610437	0.0119547	0.0713199	0.108009	-0.149724	-0.311985	0.167838	1.5708	0	0	-0.0593386	-0.199088	0.359525	0.540854	0.923641	0	0
4.81	-0.841012	1.5057	-0.922478	1.09494	-0.338782	0.974307	0.157085	-0.145957	-0.0254118	0.203992	0.118033	0	0	-0.146971	0.0106685	-0.0313275	0.0421579	0.0620854	0	0	-0.0588715	0.00907112	0.0726273	0.103023	-0.149361	-0.31024	0.172947	1.5708	0	0	-0.0631475	-0.201818	0.357859	0.537269	0.922993	0	0
4.82	-0.837772	1.50614	-0.923576	1.09337	-0.340287	0.974135	0.156418	-0.150979	-0.0250127	0.207637	0.118632	0	0	-0.148763	0.00921343	-0.0290276	0.042051	0.0637011	0	0	-0.0565749	0.00640317	0.0732348	0.0978511	-0.148719	-0.30807	0.178321	1.5708	0	0	-0.0671668	-0.204732	0.356031	0.533474	0.922232	0	0
4.83	-0.828723	1.50646	-0.931113	1.09172	-0.341717	0.973971	0.155317	-0.156054	-0.0236056	0.210648	0.119081	0	0	-0.150768	0.0080307	-0.0273748	0.0421256	0.0652073	0	0	-0.0548178	0.00349475	0.0738781	0.0929193	-0.14807	-0.303954	0.183938	1.5708	0	0	-0.0709303	-0.207707	0.354239	0.529497	0.921104	0	0
